<?xml version="1.0" encoding="utf-8" ?>
<svg baseProfile="full" height="57.5mm" version="1.1" viewBox="0,0,306.20000000000005,57.5" width="306.20000000000005mm" xmlns="http://www.w3.org/2000/svg" xmlns:ev="http://www.w3.org/2001/xml-events" xmlns:xlink="http://www.w3.org/1999/xlink"><defs /><rect fill="#fdf6e3" height="57.5" width="306.20000000000005" x="0" y="0" /><text fill="#000000" style="font-size:6px; font-family:Arial; font-weight:bold;" x="10" y="10">Hua</text><text fill="#000000" style="font-size:3px; font-family:Arial;" x="10" y="14.4">2024: 343 hours</text><text fill="#000000" style="font-size:2.5px; font-family:Arial" x="10" y="18.3">Jan</text><rect fill="#51b2fd" height="4" rx="1" ry="1" width="4" x="10" y="19.7"><title>2024-01-01 75.3 mins</title></rect><rect fill="#34A7FF" height="4" rx="1" ry="1" width="4" x="10" y="25.1"><title>2024-01-02 151.02 mins</title></rect><rect fill="#34A7FF" height="4" rx="1" ry="1" width="4" x="10" y="30.5"><title>2024-01-03 122.37 mins</title></rect><rect fill="#34A7FF" height="4" rx="1" ry="1" width="4" x="10" y="35.9"><title>2024-01-04 160.97 mins</title></rect><rect fill="#34A7FF" height="4" rx="1" ry="1" width="4" x="10" y="41.300000000000004"><title>2024-01-05 97.23 mins</title></rect><rect fill="#54b3fd" height="4" rx="1" ry="1" width="4" x="10" y="46.699999999999996"><title>2024-01-06 51.27 mins</title></rect><rect fill="#79c3fc" height="4" rx="1" ry="1" width="4" x="10" y="52.1"><title>2024-01-07 32.43 mins</title></rect><rect fill="#34A7FF" height="4" rx="1" ry="1" width="4" x="15.4" y="19.7"><title>2024-01-08 105.95 mins</title></rect><rect fill="#51b2fd" height="4" rx="1" ry="1" width="4" x="15.4" y="25.1"><title>2024-01-09 74.23 mins</title></rect><rect fill="#4fb1fe" height="4" rx="1" ry="1" width="4" x="15.4" y="30.5"><title>2024-01-10 91.18 mins</title></rect><rect fill="#7bc4fc" height="4" rx="1" ry="1" width="4" x="15.4" y="35.9"><title>2024-01-11 24.2 mins</title></rect><rect fill="#53b3fd" height="4" rx="1" ry="1" width="4" x="15.4" y="41.300000000000004"><title>2024-01-12 53.15 mins</title></rect><rect fill="#7cc4fc" height="4" rx="1" ry="1" width="4" x="15.4" y="46.699999999999996"><title>2024-01-13 19.2 mins</title></rect><rect fill="#7dc4fc" height="4" rx="1" ry="1" width="4" x="15.4" y="52.1"><title>2024-01-14 15.42 mins</title></rect><rect fill="#53b3fd" height="4" rx="1" ry="1" width="4" x="20.8" y="19.7"><title>2024-01-15 55.67 mins</title></rect><rect fill="#34A7FF" height="4" rx="1" ry="1" width="4" x="20.8" y="25.1"><title>2024-01-16 102.1 mins</title></rect><rect fill="#77c2fc" height="4" rx="1" ry="1" width="4" x="20.8" y="30.5"><title>2024-01-17 39.3 mins</title></rect><rect fill="#7cc4fc" height="4" rx="1" ry="1" width="4" x="20.8" y="35.9"><title>2024-01-18 18.75 mins</title></rect><rect fill="#50b2fd" height="4" rx="1" ry="1" width="4" x="20.8" y="41.300000000000004"><title>2024-01-19 80.13 mins</title></rect><rect fill="#76c1fc" height="4" rx="1" ry="1" width="4" x="20.8" y="46.699999999999996"><title>2024-01-20 43.92 mins</title></rect><rect fill="#7bc3fc" height="4" rx="1" ry="1" width="4" x="20.8" y="52.1"><title>2024-01-21 24.38 mins</title></rect><rect fill="#53b3fd" height="4" rx="1" ry="1" width="4" x="26.200000000000003" y="19.7"><title>2024-01-22 60.58 mins</title></rect><rect fill="#52b3fd" height="4" rx="1" ry="1" width="4" x="26.200000000000003" y="25.1"><title>2024-01-23 66.77 mins</title></rect><rect fill="#50b2fd" height="4" rx="1" ry="1" width="4" x="26.200000000000003" y="30.5"><title>2024-01-24 77.2 mins</title></rect><rect fill="#34A7FF" height="4" rx="1" ry="1" width="4" x="26.200000000000003" y="35.9"><title>2024-01-25 95.07 mins</title></rect><rect fill="#7bc3fc" height="4" rx="1" ry="1" width="4" x="26.200000000000003" y="41.300000000000004"><title>2024-01-26 24.45 mins</title></rect><rect fill="#7ec5fc" height="4" rx="1" ry="1" width="4" x="26.200000000000003" y="46.699999999999996"><title>2024-01-27 13.13 mins</title></rect><rect fill="#80c5fc" height="4" rx="1" ry="1" width="4" x="26.200000000000003" y="52.1"><title>2024-01-28 4.88 mins</title></rect><rect fill="#34A7FF" height="4" rx="1" ry="1" width="4" x="31.6" y="19.7"><title>2024-01-29 160.1 mins</title></rect><rect fill="#51b2fd" height="4" rx="1" ry="1" width="4" x="31.6" y="25.1"><title>2024-01-30 72.27 mins</title></rect><rect fill="#34A7FF" height="4" rx="1" ry="1" width="4" x="31.6" y="30.5"><title>2024-01-31 94.63 mins</title></rect><rect fill="#7ac3fc" height="4" rx="1" ry="1" width="4" x="31.6" y="35.9"><title>2024-02-01 29.05 mins</title></rect><rect fill="#7ac3fc" height="4" rx="1" ry="1" width="4" x="31.6" y="41.300000000000004"><title>2024-02-02 29.22 mins</title></rect><rect fill="#7fc5fc" height="4" rx="1" ry="1" width="4" x="31.6" y="46.699999999999996"><title>2024-02-03 9.12 mins</title></rect><rect fill="#7dc4fc" height="4" rx="1" ry="1" width="4" x="31.6" y="52.1"><title>2024-02-04 17.37 mins</title></rect><text fill="#000000" style="font-size:2.5px; font-family:Arial" x="37.0" y="18.3">Feb</text><rect fill="#50b2fd" height="4" rx="1" ry="1" width="4" x="37.0" y="19.7"><title>2024-02-05 82.73 mins</title></rect><rect fill="#7cc4fc" height="4" rx="1" ry="1" width="4" x="37.0" y="25.1"><title>2024-02-06 21.22 mins</title></rect><rect fill="#34A7FF" height="4" rx="1" ry="1" width="4" x="37.0" y="30.5"><title>2024-02-07 179.12 mins</title></rect><rect fill="#53b3fd" height="4" rx="1" ry="1" width="4" x="37.0" y="35.9"><title>2024-02-08 53.27 mins</title></rect><rect fill="#7dc4fc" height="4" rx="1" ry="1" width="4" x="37.0" y="41.300000000000004"><title>2024-02-09 14.72 mins</title></rect><rect fill="#76c1fc" height="4" rx="1" ry="1" width="4" x="37.0" y="46.699999999999996"><title>2024-02-10 45.82 mins</title></rect><rect fill="#78c2fc" height="4" rx="1" ry="1" width="4" x="37.0" y="52.1"><title>2024-02-11 37.75 mins</title></rect><rect fill="#76c1fc" height="4" rx="1" ry="1" width="4" x="42.4" y="19.7"><title>2024-02-12 46.32 mins</title></rect><rect fill="#76c2fc" height="4" rx="1" ry="1" width="4" x="42.4" y="25.1"><title>2024-02-13 43.33 mins</title></rect><rect fill="#4fb2fe" height="4" rx="1" ry="1" width="4" x="42.4" y="30.5"><title>2024-02-14 91.1 mins</title></rect><rect fill="#77c2fc" height="4" rx="1" ry="1" width="4" x="42.4" y="35.9"><title>2024-02-15 40.25 mins</title></rect><rect fill="#51b2fd" height="4" rx="1" ry="1" width="4" x="42.4" y="41.300000000000004"><title>2024-02-16 76.62 mins</title></rect><rect fill="#7fc5fc" height="4" rx="1" ry="1" width="4" x="42.4" y="46.699999999999996"><title>2024-02-17 7.4 mins</title></rect><rect fill="#34A7FF" height="4" rx="1" ry="1" width="4" x="42.4" y="52.1"><title>2024-02-18 162.15 mins</title></rect><rect fill="#53b3fd" height="4" rx="1" ry="1" width="4" x="47.8" y="19.7"><title>2024-02-19 53.12 mins</title></rect><rect fill="#78c2fc" height="4" rx="1" ry="1" width="4" x="47.8" y="25.1"><title>2024-02-20 36.28 mins</title></rect><rect fill="#50b2fd" height="4" rx="1" ry="1" width="4" x="47.8" y="30.5"><title>2024-02-21 80.28 mins</title></rect><rect fill="#51b2fd" height="4" rx="1" ry="1" width="4" x="47.8" y="35.9"><title>2024-02-22 74.22 mins</title></rect><rect fill="#34A7FF" height="4" rx="1" ry="1" width="4" x="47.8" y="41.300000000000004"><title>2024-02-23 115.68 mins</title></rect><rect fill="#7dc5fc" height="4" rx="1" ry="1" width="4" x="47.8" y="46.699999999999996"><title>2024-02-24 14.43 mins</title></rect><rect fill="#34A7FF" height="4" rx="1" ry="1" width="4" x="47.8" y="52.1"><title>2024-02-25 132.5 mins</title></rect><rect fill="#52b3fd" height="4" rx="1" ry="1" width="4" x="53.199999999999996" y="19.7"><title>2024-02-26 65.6 mins</title></rect><rect fill="#34A7FF" height="4" rx="1" ry="1" width="4" x="53.199999999999996" y="25.1"><title>2024-02-27 99.28 mins</title></rect><rect fill="#4fb2fd" height="4" rx="1" ry="1" width="4" x="53.199999999999996" y="30.5"><title>2024-02-28 88.55 mins</title></rect><rect fill="#34A7FF" height="4" rx="1" ry="1" width="4" x="53.199999999999996" y="35.9"><title>2024-02-29 193.07 mins</title></rect><rect fill="#34A7FF" height="4" rx="1" ry="1" width="4" x="53.199999999999996" y="41.300000000000004"><title>2024-03-01 122.13 mins</title></rect><rect fill="#78c2fc" height="4" rx="1" ry="1" width="4" x="53.199999999999996" y="46.699999999999996"><title>2024-03-02 37.57 mins</title></rect><rect fill="#34A7FF" height="4" rx="1" ry="1" width="4" x="53.199999999999996" y="52.1"><title>2024-03-03 94.73 mins</title></rect><text fill="#000000" style="font-size:2.5px; font-family:Arial" x="58.599999999999994" y="18.3">Mar</text><rect fill="#34A7FF" height="4" rx="1" ry="1" width="4" x="58.599999999999994" y="19.7"><title>2024-03-04 101.55 mins</title></rect><rect fill="#34A7FF" height="4" rx="1" ry="1" width="4" x="58.599999999999994" y="25.1"><title>2024-03-05 128.72 mins</title></rect><rect fill="#34A7FF" height="4" rx="1" ry="1" width="4" x="58.599999999999994" y="30.5"><title>2024-03-06 148.2 mins</title></rect><rect fill="#34A7FF" height="4" rx="1" ry="1" width="4" x="58.599999999999994" y="35.9"><title>2024-03-07 108.33 mins</title></rect><rect fill="#50b2fd" height="4" rx="1" ry="1" width="4" x="58.599999999999994" y="41.300000000000004"><title>2024-03-08 80.43 mins</title></rect><rect fill="#79c3fc" height="4" rx="1" ry="1" width="4" x="58.599999999999994" y="46.699999999999996"><title>2024-03-09 31.05 mins</title></rect><rect fill="#4fb1fe" height="4" rx="1" ry="1" width="4" x="58.599999999999994" y="52.1"><title>2024-03-10 91.77 mins</title></rect><rect fill="#34A7FF" height="4" rx="1" ry="1" width="4" x="63.99999999999999" y="19.7"><title>2024-03-11 125.53 mins</title></rect><rect fill="#76c1fc" height="4" rx="1" ry="1" width="4" x="63.99999999999999" y="25.1"><title>2024-03-12 46.17 mins</title></rect><rect fill="#4fb2fd" height="4" rx="1" ry="1" width="4" x="63.99999999999999" y="30.5"><title>2024-03-13 87.43 mins</title></rect><rect fill="#50b2fd" height="4" rx="1" ry="1" width="4" x="63.99999999999999" y="35.9"><title>2024-03-14 84.25 mins</title></rect><rect fill="#34A7FF" height="4" rx="1" ry="1" width="4" x="63.99999999999999" y="41.300000000000004"><title>2024-03-15 113.12 mins</title></rect><rect fill="#34A7FF" height="4" rx="1" ry="1" width="4" x="63.99999999999999" y="46.699999999999996"><title>2024-03-16 128.12 mins</title></rect><rect fill="#34A7FF" height="4" rx="1" ry="1" width="4" x="63.99999999999999" y="52.1"><title>2024-03-17 155.85 mins</title></rect><rect fill="#34A7FF" height="4" rx="1" ry="1" width="4" x="69.39999999999999" y="19.7"><title>2024-03-18 200.47 mins</title></rect><rect fill="#34A7FF" height="4" rx="1" ry="1" width="4" x="69.39999999999999" y="25.1"><title>2024-03-19 128.37 mins</title></rect><rect fill="#34A7FF" height="4" rx="1" ry="1" width="4" x="69.39999999999999" y="30.5"><title>2024-03-20 134.2 mins</title></rect><rect fill="#34A7FF" height="4" rx="1" ry="1" width="4" x="69.39999999999999" y="35.9"><title>2024-03-21 128.57 mins</title></rect><rect fill="#34A7FF" height="4" rx="1" ry="1" width="4" x="69.39999999999999" y="41.300000000000004"><title>2024-03-22 105.72 mins</title></rect><rect fill="#52b3fd" height="4" rx="1" ry="1" width="4" x="69.39999999999999" y="46.699999999999996"><title>2024-03-23 63.87 mins</title></rect><rect fill="#34A7FF" height="4" rx="1" ry="1" width="4" x="69.39999999999999" y="52.1"><title>2024-03-24 108.28 mins</title></rect><rect fill="#34A7FF" height="4" rx="1" ry="1" width="4" x="74.8" y="19.7"><title>2024-03-25 153.05 mins</title></rect><rect fill="#34A7FF" height="4" rx="1" ry="1" width="4" x="74.8" y="25.1"><title>2024-03-26 126.62 mins</title></rect><rect fill="#34A7FF" height="4" rx="1" ry="1" width="4" x="74.8" y="30.5"><title>2024-03-27 129.45 mins</title></rect><rect fill="#4fb2fd" height="4" rx="1" ry="1" width="4" x="74.8" y="35.9"><title>2024-03-28 86.85 mins</title></rect><rect fill="#75c1fc" height="4" rx="1" ry="1" width="4" x="74.8" y="41.300000000000004"><title>2024-03-29 47.75 mins</title></rect><rect fill="#53b3fd" height="4" rx="1" ry="1" width="4" x="74.8" y="46.699999999999996"><title>2024-03-30 60.8 mins</title></rect><rect fill="#51b2fd" height="4" rx="1" ry="1" width="4" x="74.8" y="52.1"><title>2024-03-31 73.02 mins</title></rect><text fill="#000000" style="font-size:2.5px; font-family:Arial" x="80.2" y="18.3">Apr</text><rect fill="#78c2fc" height="4" rx="1" ry="1" width="4" x="80.2" y="19.7"><title>2024-04-01 37.9 mins</title></rect><rect fill="#34A7FF" height="4" rx="1" ry="1" width="4" x="80.2" y="25.1"><title>2024-04-02 143.1 mins</title></rect><rect fill="#52b3fd" height="4" rx="1" ry="1" width="4" x="80.2" y="30.5"><title>2024-04-03 62.52 mins</title></rect><rect fill="#77c2fc" height="4" rx="1" ry="1" width="4" x="80.2" y="35.9"><title>2024-04-04 39.53 mins</title></rect><rect fill="#7ec5fc" height="4" rx="1" ry="1" width="4" x="80.2" y="41.300000000000004"><title>2024-04-05 12.7 mins</title></rect><rect fill="#77c2fc" height="4" rx="1" ry="1" width="4" x="80.2" y="46.699999999999996"><title>2024-04-06 41.48 mins</title></rect><rect fill="#53b3fd" height="4" rx="1" ry="1" width="4" x="80.2" y="52.1"><title>2024-04-07 59.08 mins</title></rect><rect fill="#34A7FF" height="4" rx="1" ry="1" width="4" x="85.60000000000001" y="19.7"><title>2024-04-08 133.57 mins</title></rect><rect fill="#53b3fd" height="4" rx="1" ry="1" width="4" x="85.60000000000001" y="25.1"><title>2024-04-09 56.55 mins</title></rect><rect fill="#77c2fc" height="4" rx="1" ry="1" width="4" x="85.60000000000001" y="30.5"><title>2024-04-10 40.1 mins</title></rect><rect fill="#50b2fd" height="4" rx="1" ry="1" width="4" x="85.60000000000001" y="35.9"><title>2024-04-11 81.73 mins</title></rect><rect fill="#34A7FF" height="4" rx="1" ry="1" width="4" x="85.60000000000001" y="41.300000000000004"><title>2024-04-12 94.7 mins</title></rect><rect fill="#7bc3fc" height="4" rx="1" ry="1" width="4" x="85.60000000000001" y="46.699999999999996"><title>2024-04-13 26.3 mins</title></rect><rect fill="#7ac3fc" height="4" rx="1" ry="1" width="4" x="85.60000000000001" y="52.1"><title>2024-04-14 26.7 mins</title></rect><rect fill="#34A7FF" height="4" rx="1" ry="1" width="4" x="91.00000000000001" y="19.7"><title>2024-04-15 103.3 mins</title></rect><rect fill="#76c1fc" height="4" rx="1" ry="1" width="4" x="91.00000000000001" y="25.1"><title>2024-04-16 43.8 mins</title></rect><rect fill="#34A7FF" height="4" rx="1" ry="1" width="4" x="91.00000000000001" y="30.5"><title>2024-04-17 101.83 mins</title></rect><rect fill="#34A7FF" height="4" rx="1" ry="1" width="4" x="91.00000000000001" y="35.9"><title>2024-04-18 107.7 mins</title></rect><rect fill="#77c2fc" height="4" rx="1" ry="1" width="4" x="91.00000000000001" y="41.300000000000004"><title>2024-04-19 40.03 mins</title></rect><rect fill="#52b3fd" height="4" rx="1" ry="1" width="4" x="91.00000000000001" y="46.699999999999996"><title>2024-04-20 63.85 mins</title></rect><rect fill="#34A7FF" height="4" rx="1" ry="1" width="4" x="91.00000000000001" y="52.1"><title>2024-04-21 97.3 mins</title></rect><rect fill="#34A7FF" height="4" rx="1" ry="1" width="4" x="96.40000000000002" y="19.7"><title>2024-04-22 94.3 mins</title></rect><rect fill="#34A7FF" height="4" rx="1" ry="1" width="4" x="96.40000000000002" y="25.1"><title>2024-04-23 180.28 mins</title></rect><rect fill="#34A7FF" height="4" rx="1" ry="1" width="4" x="96.40000000000002" y="30.5"><title>2024-04-24 100.42 mins</title></rect><rect fill="#34A7FF" height="4" rx="1" ry="1" width="4" x="96.40000000000002" y="35.9"><title>2024-04-25 100.15 mins</title></rect><rect fill="#4fb2fd" height="4" rx="1" ry="1" width="4" x="96.40000000000002" y="41.300000000000004"><title>2024-04-26 90.15 mins</title></rect><rect fill="#7bc3fc" height="4" rx="1" ry="1" width="4" x="96.40000000000002" y="46.699999999999996"><title>2024-04-27 24.45 mins</title></rect><rect fill="#4eb1fe" height="4" rx="1" ry="1" width="4" x="96.40000000000002" y="52.1"><title>2024-04-28 93.52 mins</title></rect><rect fill="#51b2fd" height="4" rx="1" ry="1" width="4" x="101.80000000000003" y="19.7"><title>2024-04-29 72.83 mins</title></rect><rect fill="#34A7FF" height="4" rx="1" ry="1" width="4" x="101.80000000000003" y="25.1"><title>2024-04-30 152.43 mins</title></rect><rect fill="#79c3fc" height="4" rx="1" ry="1" width="4" x="101.80000000000003" y="30.5"><title>2024-05-01 32.48 mins</title></rect><rect fill="#51b2fd" height="4" rx="1" ry="1" width="4" x="101.80000000000003" y="35.9"><title>2024-05-02 75.32 mins</title></rect><rect fill="#80c5fc" height="4" rx="1" ry="1" width="4" x="101.80000000000003" y="41.300000000000004"><title>2024-05-03 5.52 mins</title></rect><rect fill="#7ec5fc" height="4" rx="1" ry="1" width="4" x="101.80000000000003" y="46.699999999999996"><title>2024-05-04 13.32 mins</title></rect><rect fill="#7fc5fc" height="4" rx="1" ry="1" width="4" x="101.80000000000003" y="52.1"><title>2024-05-05 8.15 mins</title></rect><text fill="#000000" style="font-size:2.5px; font-family:Arial" x="107.20000000000003" y="18.3">May</text><rect fill="#34A7FF" height="4" rx="1" ry="1" width="4" x="107.20000000000003" y="19.7"><title>2024-05-06 102.13 mins</title></rect><rect fill="#34A7FF" height="4" rx="1" ry="1" width="4" x="107.20000000000003" y="25.1"><title>2024-05-07 107.5 mins</title></rect><rect fill="#75c1fc" height="4" rx="1" ry="1" width="4" x="107.20000000000003" y="30.5"><title>2024-05-08 47.48 mins</title></rect><rect fill="#53b3fd" height="4" rx="1" ry="1" width="4" x="107.20000000000003" y="35.9"><title>2024-05-09 56.58 mins</title></rect><rect fill="#53b3fd" height="4" rx="1" ry="1" width="4" x="107.20000000000003" y="41.300000000000004"><title>2024-05-10 59.52 mins</title></rect><rect fill="#34A7FF" height="4" rx="1" ry="1" width="4" x="107.20000000000003" y="46.699999999999996"><title>2024-05-11 101.65 mins</title></rect><rect fill="#7fc5fc" height="4" rx="1" ry="1" width="4" x="107.20000000000003" y="52.1"><title>2024-05-12 7.98 mins</title></rect><rect fill="#34A7FF" height="4" rx="1" ry="1" width="4" x="112.60000000000004" y="19.7"><title>2024-05-13 108.45 mins</title></rect><rect fill="#76c1fc" height="4" rx="1" ry="1" width="4" x="112.60000000000004" y="25.1"><title>2024-05-14 44.3 mins</title></rect><rect fill="#34A7FF" height="4" rx="1" ry="1" width="4" x="112.60000000000004" y="30.5"><title>2024-05-15 160.12 mins</title></rect><rect fill="#34A7FF" height="4" rx="1" ry="1" width="4" x="112.60000000000004" y="35.9"><title>2024-05-16 116.32 mins</title></rect><rect fill="#51b2fd" height="4" rx="1" ry="1" width="4" x="112.60000000000004" y="41.300000000000004"><title>2024-05-17 72.18 mins</title></rect><rect fill="#77c2fc" height="4" rx="1" ry="1" width="4" x="112.60000000000004" y="46.699999999999996"><title>2024-05-18 41.98 mins</title></rect><rect fill="#51b2fd" height="4" rx="1" ry="1" width="4" x="112.60000000000004" y="52.1"><title>2024-05-19 77.1 mins</title></rect><rect fill="#51b2fd" height="4" rx="1" ry="1" width="4" x="118.00000000000004" y="19.7"><title>2024-05-20 71.0 mins</title></rect><rect fill="#52b3fd" height="4" rx="1" ry="1" width="4" x="118.00000000000004" y="25.1"><title>2024-05-21 63.87 mins</title></rect><rect fill="#53b3fd" height="4" rx="1" ry="1" width="4" x="118.00000000000004" y="30.5"><title>2024-05-22 53.37 mins</title></rect><rect fill="#52b3fd" height="4" rx="1" ry="1" width="4" x="118.00000000000004" y="35.9"><title>2024-05-23 62.5 mins</title></rect><rect fill="#50b2fd" height="4" rx="1" ry="1" width="4" x="118.00000000000004" y="41.300000000000004"><title>2024-05-24 79.98 mins</title></rect><rect fill="#52b3fd" height="4" rx="1" ry="1" width="4" x="118.00000000000004" y="46.699999999999996"><title>2024-05-25 62.8 mins</title></rect><rect fill="#53b3fd" height="4" rx="1" ry="1" width="4" x="118.00000000000004" y="52.1"><title>2024-05-26 59.57 mins</title></rect><rect fill="#34A7FF" height="4" rx="1" ry="1" width="4" x="123.40000000000005" y="19.7"><title>2024-05-27 169.25 mins</title></rect><rect fill="#78c2fc" height="4" rx="1" ry="1" width="4" x="123.40000000000005" y="25.1"><title>2024-05-28 34.8 mins</title></rect><rect fill="#51b3fd" height="4" rx="1" ry="1" width="4" x="123.40000000000005" y="30.5"><title>2024-05-29 69.37 mins</title></rect><rect fill="#53b3fd" height="4" rx="1" ry="1" width="4" x="123.40000000000005" y="35.9"><title>2024-05-30 58.15 mins</title></rect><rect fill="#52b3fd" height="4" rx="1" ry="1" width="4" x="123.40000000000005" y="41.300000000000004"><title>2024-05-31 64.32 mins</title></rect><rect fill="#7fc5fc" height="4" rx="1" ry="1" width="4" x="123.40000000000005" y="46.699999999999996"><title>2024-06-01 8.63 mins</title></rect><rect fill="#7ec5fc" height="4" rx="1" ry="1" width="4" x="123.40000000000005" y="52.1"><title>2024-06-02 12.63 mins</title></rect><text fill="#000000" style="font-size:2.5px; font-family:Arial" x="128.80000000000004" y="18.3">Jun</text><rect fill="#51b3fd" height="4" rx="1" ry="1" width="4" x="128.80000000000004" y="19.7"><title>2024-06-03 70.07 mins</title></rect><rect fill="#50b2fd" height="4" rx="1" ry="1" width="4" x="128.80000000000004" y="25.1"><title>2024-06-04 79.77 mins</title></rect><rect fill="#34A7FF" height="4" rx="1" ry="1" width="4" x="128.80000000000004" y="30.5"><title>2024-06-05 111.5 mins</title></rect><rect fill="#4fb2fd" height="4" rx="1" ry="1" width="4" x="128.80000000000004" y="35.9"><title>2024-06-06 89.98 mins</title></rect><rect fill="#75c1fc" height="4" rx="1" ry="1" width="4" x="128.80000000000004" y="41.300000000000004"><title>2024-06-07 49.53 mins</title></rect><rect fill="#7ec5fc" height="4" rx="1" ry="1" width="4" x="128.80000000000004" y="46.699999999999996"><title>2024-06-08 10.7 mins</title></rect><rect fill="#7ec5fc" height="4" rx="1" ry="1" width="4" x="128.80000000000004" y="52.1"><title>2024-06-09 11.78 mins</title></rect><rect fill="#7dc4fc" height="4" rx="1" ry="1" width="4" x="134.20000000000005" y="19.7"><title>2024-06-10 15.07 mins</title></rect><rect fill="#53b3fd" height="4" rx="1" ry="1" width="4" x="134.20000000000005" y="25.1"><title>2024-06-11 55.38 mins</title></rect><rect fill="#50b2fd" height="4" rx="1" ry="1" width="4" x="134.20000000000005" y="30.5"><title>2024-06-12 78.3 mins</title></rect><rect fill="#34A7FF" height="4" rx="1" ry="1" width="4" x="134.20000000000005" y="35.9"><title>2024-06-13 139.22 mins</title></rect><rect fill="#34A7FF" height="4" rx="1" ry="1" width="4" x="134.20000000000005" y="41.300000000000004"><title>2024-06-14 106.1 mins</title></rect><rect fill="#34A7FF" height="4" rx="1" ry="1" width="4" x="134.20000000000005" y="46.699999999999996"><title>2024-06-15 98.63 mins</title></rect><rect fill="#79c3fc" height="4" rx="1" ry="1" width="4" x="134.20000000000005" y="52.1"><title>2024-06-16 31.57 mins</title></rect><rect fill="#50b2fd" height="4" rx="1" ry="1" width="4" x="139.60000000000005" y="19.7"><title>2024-06-17 81.23 mins</title></rect><rect fill="#34A7FF" height="4" rx="1" ry="1" width="4" x="139.60000000000005" y="25.1"><title>2024-06-18 110.68 mins</title></rect><rect fill="#34A7FF" height="4" rx="1" ry="1" width="4" x="139.60000000000005" y="30.5"><title>2024-06-19 151.07 mins</title></rect><rect fill="#34A7FF" height="4" rx="1" ry="1" width="4" x="139.60000000000005" y="35.9"><title>2024-06-20 94.15 mins</title></rect><rect fill="#34A7FF" height="4" rx="1" ry="1" width="4" x="139.60000000000005" y="41.300000000000004"><title>2024-06-21 120.82 mins</title></rect><rect fill="#80c5fc" height="4" rx="1" ry="1" width="4" x="139.60000000000005" y="46.699999999999996"><title>2024-06-22 5.02 mins</title></rect><rect fill="#77c2fc" height="4" rx="1" ry="1" width="4" x="139.60000000000005" y="52.1"><title>2024-06-23 38.58 mins</title></rect><rect fill="#75c1fc" height="4" rx="1" ry="1" width="4" x="145.00000000000006" y="19.7"><title>2024-06-24 50.57 mins</title></rect><rect fill="#34A7FF" height="4" rx="1" ry="1" width="4" x="145.00000000000006" y="25.1"><title>2024-06-25 103.95 mins</title></rect><rect fill="#50b2fd" height="4" rx="1" ry="1" width="4" x="145.00000000000006" y="30.5"><title>2024-06-26 80.95 mins</title></rect><rect fill="#34A7FF" height="4" rx="1" ry="1" width="4" x="145.00000000000006" y="35.9"><title>2024-06-27 98.03 mins</title></rect><rect fill="#75c1fc" height="4" rx="1" ry="1" width="4" x="145.00000000000006" y="41.300000000000004"><title>2024-06-28 49.93 mins</title></rect><rect fill="#7fc5fc" height="4" rx="1" ry="1" width="4" x="145.00000000000006" y="46.699999999999996"><title>2024-06-29 9.9 mins</title></rect><rect fill="#79c3fc" height="4" rx="1" ry="1" width="4" x="145.00000000000006" y="52.1"><title>2024-06-30 30.85 mins</title></rect><text fill="#000000" style="font-size:2.5px; font-family:Arial" x="150.40000000000006" y="18.3">Jul</text><rect fill="#34A7FF" height="4" rx="1" ry="1" width="4" x="150.40000000000006" y="19.7"><title>2024-07-01 100.2 mins</title></rect><rect fill="#52b3fd" height="4" rx="1" ry="1" width="4" x="150.40000000000006" y="25.1"><title>2024-07-02 64.28 mins</title></rect><rect fill="#4eb1fe" height="4" rx="1" ry="1" width="4" x="150.40000000000006" y="30.5"><title>2024-07-03 93.7 mins</title></rect><rect fill="#4fb2fd" height="4" rx="1" ry="1" width="4" x="150.40000000000006" y="35.9"><title>2024-07-04 87.02 mins</title></rect><rect fill="#34A7FF" height="4" rx="1" ry="1" width="4" x="150.40000000000006" y="41.300000000000004"><title>2024-07-05 169.87 mins</title></rect><rect fill="#77c2fc" height="4" rx="1" ry="1" width="4" x="150.40000000000006" y="46.699999999999996"><title>2024-07-06 40.47 mins</title></rect><rect fill="#76c1fc" height="4" rx="1" ry="1" width="4" x="150.40000000000006" y="52.1"><title>2024-07-07 45.3 mins</title></rect><rect fill="#34A7FF" height="4" rx="1" ry="1" width="4" x="155.80000000000007" y="19.7"><title>2024-07-08 119.33 mins</title></rect><rect fill="#34A7FF" height="4" rx="1" ry="1" width="4" x="155.80000000000007" y="25.1"><title>2024-07-09 97.48 mins</title></rect><rect fill="#34A7FF" height="4" rx="1" ry="1" width="4" x="155.80000000000007" y="30.5"><title>2024-07-10 133.53 mins</title></rect><rect fill="#52b3fd" height="4" rx="1" ry="1" width="4" x="155.80000000000007" y="35.9"><title>2024-07-11 68.55 mins</title></rect><rect fill="#52b3fd" height="4" rx="1" ry="1" width="4" x="155.80000000000007" y="41.300000000000004"><title>2024-07-12 62.68 mins</title></rect><rect fill="#7bc4fc" height="4" rx="1" ry="1" width="4" x="155.80000000000007" y="46.699999999999996"><title>2024-07-13 23.73 mins</title></rect><rect fill="#34A7FF" height="4" rx="1" ry="1" width="4" x="155.80000000000007" y="52.1"><title>2024-07-14 96.03 mins</title></rect><rect fill="#4fb2fd" height="4" rx="1" ry="1" width="4" x="161.20000000000007" y="19.7"><title>2024-07-15 87.97 mins</title></rect><rect fill="#34A7FF" height="4" rx="1" ry="1" width="4" x="161.20000000000007" y="25.1"><title>2024-07-16 127.27 mins</title></rect><rect fill="#34A7FF" height="4" rx="1" ry="1" width="4" x="161.20000000000007" y="30.5"><title>2024-07-17 102.35 mins</title></rect><rect fill="#34A7FF" height="4" rx="1" ry="1" width="4" x="161.20000000000007" y="35.9"><title>2024-07-18 116.07 mins</title></rect><rect fill="#52b3fd" height="4" rx="1" ry="1" width="4" x="161.20000000000007" y="41.300000000000004"><title>2024-07-19 61.77 mins</title></rect><rect fill="#54b3fd" height="4" rx="1" ry="1" width="4" x="161.20000000000007" y="46.699999999999996"><title>2024-07-20 51.98 mins</title></rect><rect fill="#4fb2fd" height="4" rx="1" ry="1" width="4" x="161.20000000000007" y="52.1"><title>2024-07-21 89.67 mins</title></rect><rect fill="#34A7FF" height="4" rx="1" ry="1" width="4" x="166.60000000000008" y="19.7"><title>2024-07-22 132.02 mins</title></rect><rect fill="#4eb1fe" height="4" rx="1" ry="1" width="4" x="166.60000000000008" y="25.1"><title>2024-07-23 93.92 mins</title></rect><rect fill="#34A7FF" height="4" rx="1" ry="1" width="4" x="166.60000000000008" y="30.5"><title>2024-07-24 135.88 mins</title></rect><rect fill="#50b2fd" height="4" rx="1" ry="1" width="4" x="166.60000000000008" y="35.9"><title>2024-07-25 85.05 mins</title></rect><rect fill="#50b2fd" height="4" rx="1" ry="1" width="4" x="166.60000000000008" y="41.300000000000004"><title>2024-07-26 83.38 mins</title></rect><rect fill="#7ec5fc" height="4" rx="1" ry="1" width="4" x="166.60000000000008" y="46.699999999999996"><title>2024-07-27 12.63 mins</title></rect><rect fill="#7fc5fc" height="4" rx="1" ry="1" width="4" x="166.60000000000008" y="52.1"><title>2024-07-28 9.55 mins</title></rect><rect fill="#7cc4fc" height="4" rx="1" ry="1" width="4" x="172.00000000000009" y="19.7"><title>2024-07-29 19.98 mins</title></rect><rect fill="#76c1fc" height="4" rx="1" ry="1" width="4" x="172.00000000000009" y="25.1"><title>2024-07-30 44.47 mins</title></rect><rect fill="#7ac3fc" height="4" rx="1" ry="1" width="4" x="172.00000000000009" y="30.5"><title>2024-07-31 28.02 mins</title></rect><rect fill="#77c2fc" height="4" rx="1" ry="1" width="4" x="172.00000000000009" y="35.9"><title>2024-08-01 40.45 mins</title></rect><rect fill="#78c2fc" height="4" rx="1" ry="1" width="4" x="172.00000000000009" y="41.300000000000004"><title>2024-08-02 37.2 mins</title></rect><rect fill="#80c6fc" height="4" rx="1" ry="1" width="4" x="172.00000000000009" y="46.699999999999996"><title>2024-08-03 3.58 mins</title></rect><rect fill="#4fb2fe" height="4" rx="1" ry="1" width="4" x="172.00000000000009" y="52.1"><title>2024-08-04 91.03 mins</title></rect><text fill="#000000" style="font-size:2.5px; font-family:Arial" x="177.4000000000001" y="18.3">Aug</text><rect fill="#76c2fc" height="4" rx="1" ry="1" width="4" x="177.4000000000001" y="19.7"><title>2024-08-05 42.73 mins</title></rect><rect fill="#7ec5fc" height="4" rx="1" ry="1" width="4" x="177.4000000000001" y="25.1"><title>2024-08-06 11.48 mins</title></rect><rect fill="#79c3fc" height="4" rx="1" ry="1" width="4" x="177.4000000000001" y="30.5"><title>2024-08-07 33.28 mins</title></rect><rect fill="#53b3fd" height="4" rx="1" ry="1" width="4" x="177.4000000000001" y="35.9"><title>2024-08-08 53.0 mins</title></rect><rect fill="#53b3fd" height="4" rx="1" ry="1" width="4" x="177.4000000000001" y="41.300000000000004"><title>2024-08-09 57.92 mins</title></rect><rect fill="#80c6fc" height="4" rx="1" ry="1" width="4" x="177.4000000000001" y="46.699999999999996"><title>2024-08-10 2.67 mins</title></rect><rect fill="#53b3fd" height="4" rx="1" ry="1" width="4" x="177.4000000000001" y="52.1"><title>2024-08-11 55.68 mins</title></rect><rect fill="#53b3fd" height="4" rx="1" ry="1" width="4" x="182.8000000000001" y="19.7"><title>2024-08-12 52.88 mins</title></rect><rect fill="#7bc3fc" height="4" rx="1" ry="1" width="4" x="182.8000000000001" y="25.1"><title>2024-08-13 25.28 mins</title></rect><rect fill="#52b3fd" height="4" rx="1" ry="1" width="4" x="182.8000000000001" y="30.5"><title>2024-08-14 64.9 mins</title></rect><rect fill="#34A7FF" height="4" rx="1" ry="1" width="4" x="182.8000000000001" y="35.9"><title>2024-08-15 116.95 mins</title></rect><rect fill="#78c2fc" height="4" rx="1" ry="1" width="4" x="182.8000000000001" y="41.300000000000004"><title>2024-08-16 35.63 mins</title></rect><rect fill="#78c2fc" height="4" rx="1" ry="1" width="4" x="182.8000000000001" y="46.699999999999996"><title>2024-08-17 35.6 mins</title></rect><rect fill="#52b3fd" height="4" rx="1" ry="1" width="4" x="182.8000000000001" y="52.1"><title>2024-08-18 61.1 mins</title></rect><rect fill="#53b3fd" height="4" rx="1" ry="1" width="4" x="188.2000000000001" y="19.7"><title>2024-08-19 57.38 mins</title></rect><rect fill="#34A7FF" height="4" rx="1" ry="1" width="4" x="188.2000000000001" y="25.1"><title>2024-08-20 108.95 mins</title></rect><rect fill="#50b2fd" height="4" rx="1" ry="1" width="4" x="188.2000000000001" y="30.5"><title>2024-08-21 83.0 mins</title></rect><rect fill="#54b3fd" height="4" rx="1" ry="1" width="4" x="188.2000000000001" y="35.9"><title>2024-08-22 51.57 mins</title></rect><rect fill="#77c2fc" height="4" rx="1" ry="1" width="4" x="188.2000000000001" y="41.300000000000004"><title>2024-08-23 40.1 mins</title></rect><rect fill="#7dc4fc" height="4" rx="1" ry="1" width="4" x="188.2000000000001" y="46.699999999999996"><title>2024-08-24 16.35 mins</title></rect><rect fill="#77c2fc" height="4" rx="1" ry="1" width="4" x="188.2000000000001" y="52.1"><title>2024-08-25 39.33 mins</title></rect><rect fill="#75c1fc" height="4" rx="1" ry="1" width="4" x="193.6000000000001" y="19.7"><title>2024-08-26 48.65 mins</title></rect><rect fill="#34A7FF" height="4" rx="1" ry="1" width="4" x="193.6000000000001" y="25.1"><title>2024-08-27 141.03 mins</title></rect><rect fill="#34A7FF" height="4" rx="1" ry="1" width="4" x="193.6000000000001" y="30.5"><title>2024-08-28 115.97 mins</title></rect><rect fill="#4fb2fd" height="4" rx="1" ry="1" width="4" x="193.6000000000001" y="35.9"><title>2024-08-29 87.83 mins</title></rect><rect fill="#51b3fd" height="4" rx="1" ry="1" width="4" x="193.6000000000001" y="41.300000000000004"><title>2024-08-30 70.05 mins</title></rect><rect fill="#7ec5fc" height="4" rx="1" ry="1" width="4" x="193.6000000000001" y="46.699999999999996"><title>2024-08-31 13.15 mins</title></rect><rect fill="#7ac3fc" height="4" rx="1" ry="1" width="4" x="193.6000000000001" y="52.1"><title>2024-09-01 26.53 mins</title></rect><text fill="#000000" style="font-size:2.5px; font-family:Arial" x="199.0000000000001" y="18.3">Sep</text><rect fill="#51b2fd" height="4" rx="1" ry="1" width="4" x="199.0000000000001" y="19.7"><title>2024-09-02 73.55 mins</title></rect><rect fill="#34A7FF" height="4" rx="1" ry="1" width="4" x="199.0000000000001" y="25.1"><title>2024-09-03 102.58 mins</title></rect><rect fill="#53b3fd" height="4" rx="1" ry="1" width="4" x="199.0000000000001" y="30.5"><title>2024-09-04 57.57 mins</title></rect><rect fill="#51b2fd" height="4" rx="1" ry="1" width="4" x="199.0000000000001" y="35.9"><title>2024-09-05 75.4 mins</title></rect><rect fill="#50b2fd" height="4" rx="1" ry="1" width="4" x="199.0000000000001" y="41.300000000000004"><title>2024-09-06 82.22 mins</title></rect><rect fill="#34A7FF" height="4" rx="1" ry="1" width="4" x="199.0000000000001" y="46.699999999999996"><title>2024-09-07 213.05 mins</title></rect><rect fill="#7cc4fc" height="4" rx="1" ry="1" width="4" x="199.0000000000001" y="52.1"><title>2024-09-08 18.33 mins</title></rect><rect fill="#52b3fd" height="4" rx="1" ry="1" width="4" x="204.40000000000012" y="19.7"><title>2024-09-09 61.45 mins</title></rect><rect fill="#52b3fd" height="4" rx="1" ry="1" width="4" x="204.40000000000012" y="25.1"><title>2024-09-10 67.83 mins</title></rect><rect fill="#34A7FF" height="4" rx="1" ry="1" width="4" x="204.40000000000012" y="30.5"><title>2024-09-11 138.98 mins</title></rect><rect fill="#4fb2fd" height="4" rx="1" ry="1" width="4" x="204.40000000000012" y="35.9"><title>2024-09-12 87.13 mins</title></rect><rect fill="#52b3fd" height="4" rx="1" ry="1" width="4" x="204.40000000000012" y="41.300000000000004"><title>2024-09-13 60.93 mins</title></rect><rect fill="#52b3fd" height="4" rx="1" ry="1" width="4" x="204.40000000000012" y="46.699999999999996"><title>2024-09-14 64.7 mins</title></rect><rect fill="#7dc4fc" height="4" rx="1" ry="1" width="4" x="204.40000000000012" y="52.1"><title>2024-09-15 15.57 mins</title></rect><rect fill="#80c6fc" height="4" rx="1" ry="1" width="4" x="209.80000000000013" y="19.7"><title>2024-09-16 2.45 mins</title></rect><rect fill="#78c2fc" height="4" rx="1" ry="1" width="4" x="209.80000000000013" y="25.1"><title>2024-09-17 37.32 mins</title></rect><rect fill="#53b3fd" height="4" rx="1" ry="1" width="4" x="209.80000000000013" y="30.5"><title>2024-09-18 60.88 mins</title></rect><rect fill="#51b2fd" height="4" rx="1" ry="1" width="4" x="209.80000000000013" y="35.9"><title>2024-09-19 73.27 mins</title></rect><rect fill="#4fb2fd" height="4" rx="1" ry="1" width="4" x="209.80000000000013" y="41.300000000000004"><title>2024-09-20 87.45 mins</title></rect><rect fill="#7dc4fc" height="4" rx="1" ry="1" width="4" x="209.80000000000013" y="46.699999999999996"><title>2024-09-21 14.6 mins</title></rect><rect fill="#76c1fc" height="4" rx="1" ry="1" width="4" x="209.80000000000013" y="52.1"><title>2024-09-22 46.57 mins</title></rect><rect fill="#50b2fd" height="4" rx="1" ry="1" width="4" x="215.20000000000013" y="19.7"><title>2024-09-23 79.93 mins</title></rect><rect fill="#7bc3fc" height="4" rx="1" ry="1" width="4" x="215.20000000000013" y="25.1"><title>2024-09-24 25.32 mins</title></rect><rect fill="#53b3fd" height="4" rx="1" ry="1" width="4" x="215.20000000000013" y="30.5"><title>2024-09-25 60.45 mins</title></rect><rect fill="#76c1fc" height="4" rx="1" ry="1" width="4" x="215.20000000000013" y="35.9"><title>2024-09-26 43.85 mins</title></rect><rect fill="#50b2fd" height="4" rx="1" ry="1" width="4" x="215.20000000000013" y="41.300000000000004"><title>2024-09-27 80.23 mins</title></rect><rect fill="#7ac3fc" height="4" rx="1" ry="1" width="4" x="215.20000000000013" y="46.699999999999996"><title>2024-09-28 27.23 mins</title></rect><rect fill="#75c1fc" height="4" rx="1" ry="1" width="4" x="215.20000000000013" y="52.1"><title>2024-09-29 49.9 mins</title></rect><rect fill="#75c1fc" height="4" rx="1" ry="1" width="4" x="220.60000000000014" y="19.7"><title>2024-09-30 50.25 mins</title></rect><rect fill="#81c6fc" height="4" rx="1" ry="1" width="4" x="220.60000000000014" y="25.1"><title>2024-10-01 0.82 mins</title></rect><rect fill="#7fc5fc" height="4" rx="1" ry="1" width="4" x="220.60000000000014" y="30.5"><title>2024-10-02 8.78 mins</title></rect><rect fill="#80c6fc" height="4" rx="1" ry="1" width="4" x="220.60000000000014" y="35.9"><title>2024-10-03 3.3 mins</title></rect><rect fill="#80c6fc" height="4" rx="1" ry="1" width="4" x="220.60000000000014" y="41.300000000000004"><title>2024-10-04 4.78 mins</title></rect><rect fill="#79c3fc" height="4" rx="1" ry="1" width="4" x="220.60000000000014" y="46.699999999999996"><title>2024-10-05 30.5 mins</title></rect><rect fill="#80c6fc" height="4" rx="1" ry="1" width="4" x="220.60000000000014" y="52.1"><title>2024-10-06 2.52 mins</title></rect><text fill="#000000" style="font-size:2.5px; font-family:Arial" x="226.00000000000014" y="18.3">Oct</text><rect fill="#81c6fc" height="4" rx="1" ry="1" width="4" x="226.00000000000014" y="19.7"><title>2024-10-07 1.18 mins</title></rect><rect fill="#7cc4fc" height="4" rx="1" ry="1" width="4" x="226.00000000000014" y="25.1"><title>2024-10-08 18.6 mins</title></rect><rect fill="#7cc4fc" height="4" rx="1" ry="1" width="4" x="226.00000000000014" y="30.5"><title>2024-10-09 20.5 mins</title></rect><rect fill="#75c1fc" height="4" rx="1" ry="1" width="4" x="226.00000000000014" y="35.9"><title>2024-10-10 47.42 mins</title></rect><rect fill="#79c3fc" height="4" rx="1" ry="1" width="4" x="226.00000000000014" y="41.300000000000004"><title>2024-10-11 31.62 mins</title></rect><rect fill="#53b3fd" height="4" rx="1" ry="1" width="4" x="226.00000000000014" y="46.699999999999996"><title>2024-10-12 56.42 mins</title></rect><rect fill="#75c1fc" height="4" rx="1" ry="1" width="4" x="226.00000000000014" y="52.1"><title>2024-10-13 49.07 mins</title></rect><rect fill="#7ac3fc" height="4" rx="1" ry="1" width="4" x="231.40000000000015" y="19.7"><title>2024-10-14 27.9 mins</title></rect><rect fill="#79c3fc" height="4" rx="1" ry="1" width="4" x="231.40000000000015" y="25.1"><title>2024-10-15 33.62 mins</title></rect><rect fill="#52b3fd" height="4" rx="1" ry="1" width="4" x="231.40000000000015" y="30.5"><title>2024-10-16 62.63 mins</title></rect><rect fill="#53b3fd" height="4" rx="1" ry="1" width="4" x="231.40000000000015" y="35.9"><title>2024-10-17 60.78 mins</title></rect><rect fill="#7fc5fc" height="4" rx="1" ry="1" width="4" x="231.40000000000015" y="41.300000000000004"><title>2024-10-18 10.02 mins</title></rect><rect fill="#78c2fc" height="4" rx="1" ry="1" width="4" x="231.40000000000015" y="46.699999999999996"><title>2024-10-19 37.15 mins</title></rect><rect fill="#53b3fd" height="4" rx="1" ry="1" width="4" x="231.40000000000015" y="52.1"><title>2024-10-20 54.82 mins</title></rect><rect fill="#4fb2fd" height="4" rx="1" ry="1" width="4" x="236.80000000000015" y="19.7"><title>2024-10-21 86.35 mins</title></rect><rect fill="#7ec5fc" height="4" rx="1" ry="1" width="4" x="236.80000000000015" y="25.1"><title>2024-10-22 12.42 mins</title></rect><rect fill="#34A7FF" height="4" rx="1" ry="1" width="4" x="236.80000000000015" y="30.5"><title>2024-10-23 114.95 mins</title></rect><rect fill="#7bc3fc" height="4" rx="1" ry="1" width="4" x="236.80000000000015" y="35.9"><title>2024-10-24 24.48 mins</title></rect><rect fill="#77c2fc" height="4" rx="1" ry="1" width="4" x="236.80000000000015" y="41.300000000000004"><title>2024-10-25 40.93 mins</title></rect><rect fill="#7fc5fc" height="4" rx="1" ry="1" width="4" x="236.80000000000015" y="46.699999999999996"><title>2024-10-26 6.3 mins</title></rect><rect fill="#eee8d5" height="4" rx="1" ry="1" width="4" x="236.80000000000015" y="52.1"><title>2024-10-27</title></rect><rect fill="#eee8d5" height="4" rx="1" ry="1" width="4" x="242.20000000000016" y="19.7"><title>2024-10-28</title></rect><rect fill="#eee8d5" height="4" rx="1" ry="1" width="4" x="242.20000000000016" y="25.1"><title>2024-10-29</title></rect><rect fill="#eee8d5" height="4" rx="1" ry="1" width="4" x="242.20000000000016" y="30.5"><title>2024-10-30</title></rect><rect fill="#eee8d5" height="4" rx="1" ry="1" width="4" x="242.20000000000016" y="35.9"><title>2024-10-31</title></rect><rect fill="#eee8d5" height="4" rx="1" ry="1" width="4" x="242.20000000000016" y="41.300000000000004"><title>2024-11-01</title></rect><rect fill="#eee8d5" height="4" rx="1" ry="1" width="4" x="242.20000000000016" y="46.699999999999996"><title>2024-11-02</title></rect><rect fill="#eee8d5" height="4" rx="1" ry="1" width="4" x="242.20000000000016" y="52.1"><title>2024-11-03</title></rect><text fill="#000000" style="font-size:2.5px; font-family:Arial" x="247.60000000000016" y="18.3">Nov</text><rect fill="#eee8d5" height="4" rx="1" ry="1" width="4" x="247.60000000000016" y="19.7"><title>2024-11-04</title></rect><rect fill="#eee8d5" height="4" rx="1" ry="1" width="4" x="247.60000000000016" y="25.1"><title>2024-11-05</title></rect><rect fill="#eee8d5" height="4" rx="1" ry="1" width="4" x="247.60000000000016" y="30.5"><title>2024-11-06</title></rect><rect fill="#eee8d5" height="4" rx="1" ry="1" width="4" x="247.60000000000016" y="35.9"><title>2024-11-07</title></rect><rect fill="#eee8d5" height="4" rx="1" ry="1" width="4" x="247.60000000000016" y="41.300000000000004"><title>2024-11-08</title></rect><rect fill="#eee8d5" height="4" rx="1" ry="1" width="4" x="247.60000000000016" y="46.699999999999996"><title>2024-11-09</title></rect><rect fill="#eee8d5" height="4" rx="1" ry="1" width="4" x="247.60000000000016" y="52.1"><title>2024-11-10</title></rect><rect fill="#eee8d5" height="4" rx="1" ry="1" width="4" x="253.00000000000017" y="19.7"><title>2024-11-11</title></rect><rect fill="#eee8d5" height="4" rx="1" ry="1" width="4" x="253.00000000000017" y="25.1"><title>2024-11-12</title></rect><rect fill="#eee8d5" height="4" rx="1" ry="1" width="4" x="253.00000000000017" y="30.5"><title>2024-11-13</title></rect><rect fill="#eee8d5" height="4" rx="1" ry="1" width="4" x="253.00000000000017" y="35.9"><title>2024-11-14</title></rect><rect fill="#eee8d5" height="4" rx="1" ry="1" width="4" x="253.00000000000017" y="41.300000000000004"><title>2024-11-15</title></rect><rect fill="#eee8d5" height="4" rx="1" ry="1" width="4" x="253.00000000000017" y="46.699999999999996"><title>2024-11-16</title></rect><rect fill="#eee8d5" height="4" rx="1" ry="1" width="4" x="253.00000000000017" y="52.1"><title>2024-11-17</title></rect><rect fill="#eee8d5" height="4" rx="1" ry="1" width="4" x="258.40000000000015" y="19.7"><title>2024-11-18</title></rect><rect fill="#eee8d5" height="4" rx="1" ry="1" width="4" x="258.40000000000015" y="25.1"><title>2024-11-19</title></rect><rect fill="#eee8d5" height="4" rx="1" ry="1" width="4" x="258.40000000000015" y="30.5"><title>2024-11-20</title></rect><rect fill="#eee8d5" height="4" rx="1" ry="1" width="4" x="258.40000000000015" y="35.9"><title>2024-11-21</title></rect><rect fill="#eee8d5" height="4" rx="1" ry="1" width="4" x="258.40000000000015" y="41.300000000000004"><title>2024-11-22</title></rect><rect fill="#eee8d5" height="4" rx="1" ry="1" width="4" x="258.40000000000015" y="46.699999999999996"><title>2024-11-23</title></rect><rect fill="#eee8d5" height="4" rx="1" ry="1" width="4" x="258.40000000000015" y="52.1"><title>2024-11-24</title></rect><rect fill="#eee8d5" height="4" rx="1" ry="1" width="4" x="263.8000000000001" y="19.7"><title>2024-11-25</title></rect><rect fill="#eee8d5" height="4" rx="1" ry="1" width="4" x="263.8000000000001" y="25.1"><title>2024-11-26</title></rect><rect fill="#eee8d5" height="4" rx="1" ry="1" width="4" x="263.8000000000001" y="30.5"><title>2024-11-27</title></rect><rect fill="#eee8d5" height="4" rx="1" ry="1" width="4" x="263.8000000000001" y="35.9"><title>2024-11-28</title></rect><rect fill="#eee8d5" height="4" rx="1" ry="1" width="4" x="263.8000000000001" y="41.300000000000004"><title>2024-11-29</title></rect><rect fill="#eee8d5" height="4" rx="1" ry="1" width="4" x="263.8000000000001" y="46.699999999999996"><title>2024-11-30</title></rect><rect fill="#eee8d5" height="4" rx="1" ry="1" width="4" x="263.8000000000001" y="52.1"><title>2024-12-01</title></rect><text fill="#000000" style="font-size:2.5px; font-family:Arial" x="269.2000000000001" y="18.3">Dec</text><rect fill="#eee8d5" height="4" rx="1" ry="1" width="4" x="269.2000000000001" y="19.7"><title>2024-12-02</title></rect><rect fill="#eee8d5" height="4" rx="1" ry="1" width="4" x="269.2000000000001" y="25.1"><title>2024-12-03</title></rect><rect fill="#eee8d5" height="4" rx="1" ry="1" width="4" x="269.2000000000001" y="30.5"><title>2024-12-04</title></rect><rect fill="#eee8d5" height="4" rx="1" ry="1" width="4" x="269.2000000000001" y="35.9"><title>2024-12-05</title></rect><rect fill="#eee8d5" height="4" rx="1" ry="1" width="4" x="269.2000000000001" y="41.300000000000004"><title>2024-12-06</title></rect><rect fill="#eee8d5" height="4" rx="1" ry="1" width="4" x="269.2000000000001" y="46.699999999999996"><title>2024-12-07</title></rect><rect fill="#eee8d5" height="4" rx="1" ry="1" width="4" x="269.2000000000001" y="52.1"><title>2024-12-08</title></rect><rect fill="#eee8d5" height="4" rx="1" ry="1" width="4" x="274.6000000000001" y="19.7"><title>2024-12-09</title></rect><rect fill="#eee8d5" height="4" rx="1" ry="1" width="4" x="274.6000000000001" y="25.1"><title>2024-12-10</title></rect><rect fill="#eee8d5" height="4" rx="1" ry="1" width="4" x="274.6000000000001" y="30.5"><title>2024-12-11</title></rect><rect fill="#eee8d5" height="4" rx="1" ry="1" width="4" x="274.6000000000001" y="35.9"><title>2024-12-12</title></rect><rect fill="#eee8d5" height="4" rx="1" ry="1" width="4" x="274.6000000000001" y="41.300000000000004"><title>2024-12-13</title></rect><rect fill="#eee8d5" height="4" rx="1" ry="1" width="4" x="274.6000000000001" y="46.699999999999996"><title>2024-12-14</title></rect><rect fill="#eee8d5" height="4" rx="1" ry="1" width="4" x="274.6000000000001" y="52.1"><title>2024-12-15</title></rect><rect fill="#eee8d5" height="4" rx="1" ry="1" width="4" x="280.00000000000006" y="19.7"><title>2024-12-16</title></rect><rect fill="#eee8d5" height="4" rx="1" ry="1" width="4" x="280.00000000000006" y="25.1"><title>2024-12-17</title></rect><rect fill="#eee8d5" height="4" rx="1" ry="1" width="4" x="280.00000000000006" y="30.5"><title>2024-12-18</title></rect><rect fill="#eee8d5" height="4" rx="1" ry="1" width="4" x="280.00000000000006" y="35.9"><title>2024-12-19</title></rect><rect fill="#eee8d5" height="4" rx="1" ry="1" width="4" x="280.00000000000006" y="41.300000000000004"><title>2024-12-20</title></rect><rect fill="#eee8d5" height="4" rx="1" ry="1" width="4" x="280.00000000000006" y="46.699999999999996"><title>2024-12-21</title></rect><rect fill="#eee8d5" height="4" rx="1" ry="1" width="4" x="280.00000000000006" y="52.1"><title>2024-12-22</title></rect><rect fill="#eee8d5" height="4" rx="1" ry="1" width="4" x="285.40000000000003" y="19.7"><title>2024-12-23</title></rect><rect fill="#eee8d5" height="4" rx="1" ry="1" width="4" x="285.40000000000003" y="25.1"><title>2024-12-24</title></rect><rect fill="#eee8d5" height="4" rx="1" ry="1" width="4" x="285.40000000000003" y="30.5"><title>2024-12-25</title></rect><rect fill="#eee8d5" height="4" rx="1" ry="1" width="4" x="285.40000000000003" y="35.9"><title>2024-12-26</title></rect><rect fill="#eee8d5" height="4" rx="1" ry="1" width="4" x="285.40000000000003" y="41.300000000000004"><title>2024-12-27</title></rect><rect fill="#eee8d5" height="4" rx="1" ry="1" width="4" x="285.40000000000003" y="46.699999999999996"><title>2024-12-28</title></rect><rect fill="#eee8d5" height="4" rx="1" ry="1" width="4" x="285.40000000000003" y="52.1"><title>2024-12-29</title></rect><rect fill="#eee8d5" height="4" rx="1" ry="1" width="4" x="290.8" y="19.7"><title>2024-12-30</title></rect><rect fill="#eee8d5" height="4" rx="1" ry="1" width="4" x="290.8" y="25.1"><title>2024-12-31</title></rect></svg>